<svg width="48" height="48" viewBox="0 0 48 48" fill="none" xmlns="http://www.w3.org/2000/svg">
<path d="M18 26C22.4183 26 26 22.4183 26 18C26 13.5817 22.4183 10 18 10C13.5817 10 10 13.5817 10 18C10 22.4183 13.5817 26 18 26Z" fill="#fff"/>
<path d="M18 30C12.66 30 2 32.68 2 38V40C2 41.1 2.9 42 4 42H32C33.1 42 34 41.1 34 40V38C34 32.68 23.34 30 18 30ZM30.94 15.54C31.58 17.12 31.58 18.88 30.94 20.46C30.56 21.4 30.72 22.46 31.44 23.18L31.5 23.24C32.66 24.4 34.64 24.16 35.4 22.7C36.92 19.8 36.92 16.4 35.36 13.38C34.6 11.9 32.6 11.62 31.42 12.8L31.4 12.82C30.72 13.52 30.56 14.6 30.94 15.54ZM38.36 5.78003C37.56 6.58003 37.44 7.82003 38.1 8.74003C42.04 14.22 42.02 21.56 38.04 27.24C37.4 28.14 37.54 29.38 38.32 30.16L38.38 30.22C39.36 31.2 41.02 31.12 41.86 30.02C47.36 22.94 47.38 13.28 41.86 5.98003C41.02 4.88003 39.34 4.80003 38.36 5.78003Z" fill="#fff"/>
</svg>
